<mxfile host="app.diagrams.net" modified="2021-12-27T10:16:14.129Z" agent="5.0 (Macintosh; Intel Mac OS X 10_15_7) AppleWebKit/537.36 (KHTML, like Gecko) Chrome/96.0.4664.110 Safari/537.36" etag="7bkv7pxhJV5V_HkXX-b6" version="16.1.0" type="github">
  <diagram id="wmQCY8qJL-dyslhDrxCW" name="Page-1">
    <mxGraphModel dx="1395" dy="899" grid="0" gridSize="10" guides="1" tooltips="1" connect="1" arrows="1" fold="1" page="1" pageScale="1" pageWidth="2339" pageHeight="3300" math="0" shadow="0">
      <root>
        <mxCell id="0" />
        <mxCell id="1" parent="0" />
        <mxCell id="0jPFI7pGjnbCgKfN27kb-1" value="Fiber" style="rounded=0;whiteSpace=wrap;html=1;verticalAlign=middle;fontSize=16;fontStyle=1" vertex="1" parent="1">
          <mxGeometry x="10" y="220" width="200" height="60" as="geometry" />
        </mxCell>
        <mxCell id="0jPFI7pGjnbCgKfN27kb-62" style="edgeStyle=orthogonalEdgeStyle;rounded=0;orthogonalLoop=1;jettySize=auto;html=1;exitX=1;exitY=0.5;exitDx=0;exitDy=0;entryX=0;entryY=0.5;entryDx=0;entryDy=0;fontSize=14;" edge="1" parent="1" source="0jPFI7pGjnbCgKfN27kb-2" target="0jPFI7pGjnbCgKfN27kb-5">
          <mxGeometry relative="1" as="geometry" />
        </mxCell>
        <mxCell id="0jPFI7pGjnbCgKfN27kb-2" value="memoizedState" style="rounded=0;whiteSpace=wrap;html=1;fontSize=14;" vertex="1" parent="1">
          <mxGeometry x="10" y="280" width="200" height="40" as="geometry" />
        </mxCell>
        <mxCell id="0jPFI7pGjnbCgKfN27kb-5" value="Hook" style="rounded=0;whiteSpace=wrap;html=1;verticalAlign=middle;fontSize=16;fontStyle=1" vertex="1" parent="1">
          <mxGeometry x="280" y="270" width="200" height="60" as="geometry" />
        </mxCell>
        <mxCell id="0jPFI7pGjnbCgKfN27kb-6" value="memoizedState" style="rounded=0;whiteSpace=wrap;html=1;fontSize=14;" vertex="1" parent="1">
          <mxGeometry x="280" y="330" width="200" height="40" as="geometry" />
        </mxCell>
        <mxCell id="0jPFI7pGjnbCgKfN27kb-52" value="baseState" style="rounded=0;whiteSpace=wrap;html=1;fontSize=14;" vertex="1" parent="1">
          <mxGeometry x="280" y="370" width="200" height="40" as="geometry" />
        </mxCell>
        <mxCell id="0jPFI7pGjnbCgKfN27kb-53" value="baseQueue" style="rounded=0;whiteSpace=wrap;html=1;fontSize=14;" vertex="1" parent="1">
          <mxGeometry x="280" y="410" width="200" height="40" as="geometry" />
        </mxCell>
        <mxCell id="0jPFI7pGjnbCgKfN27kb-54" value="queue" style="rounded=0;whiteSpace=wrap;html=1;fontSize=14;" vertex="1" parent="1">
          <mxGeometry x="280" y="450" width="200" height="40" as="geometry" />
        </mxCell>
        <mxCell id="0jPFI7pGjnbCgKfN27kb-63" style="edgeStyle=orthogonalEdgeStyle;rounded=0;orthogonalLoop=1;jettySize=auto;html=1;exitX=1;exitY=0.5;exitDx=0;exitDy=0;entryX=0;entryY=0.5;entryDx=0;entryDy=0;fontSize=14;" edge="1" parent="1" source="0jPFI7pGjnbCgKfN27kb-55" target="0jPFI7pGjnbCgKfN27kb-56">
          <mxGeometry relative="1" as="geometry" />
        </mxCell>
        <mxCell id="0jPFI7pGjnbCgKfN27kb-55" value="next" style="rounded=0;whiteSpace=wrap;html=1;fontSize=14;" vertex="1" parent="1">
          <mxGeometry x="280" y="490" width="200" height="40" as="geometry" />
        </mxCell>
        <mxCell id="0jPFI7pGjnbCgKfN27kb-56" value="Hook" style="rounded=0;whiteSpace=wrap;html=1;verticalAlign=middle;fontSize=16;fontStyle=1" vertex="1" parent="1">
          <mxGeometry x="560" y="280" width="200" height="50" as="geometry" />
        </mxCell>
        <mxCell id="0jPFI7pGjnbCgKfN27kb-57" value="memoizedState" style="rounded=0;whiteSpace=wrap;html=1;fontSize=14;" vertex="1" parent="1">
          <mxGeometry x="560" y="330" width="200" height="40" as="geometry" />
        </mxCell>
        <mxCell id="0jPFI7pGjnbCgKfN27kb-58" value="baseState" style="rounded=0;whiteSpace=wrap;html=1;fontSize=14;" vertex="1" parent="1">
          <mxGeometry x="560" y="370" width="200" height="40" as="geometry" />
        </mxCell>
        <mxCell id="0jPFI7pGjnbCgKfN27kb-59" value="baseQueue" style="rounded=0;whiteSpace=wrap;html=1;fontSize=14;" vertex="1" parent="1">
          <mxGeometry x="560" y="410" width="200" height="40" as="geometry" />
        </mxCell>
        <mxCell id="0jPFI7pGjnbCgKfN27kb-60" value="queue" style="rounded=0;whiteSpace=wrap;html=1;fontSize=14;" vertex="1" parent="1">
          <mxGeometry x="560" y="450" width="200" height="40" as="geometry" />
        </mxCell>
        <mxCell id="0jPFI7pGjnbCgKfN27kb-70" style="edgeStyle=orthogonalEdgeStyle;rounded=0;orthogonalLoop=1;jettySize=auto;html=1;exitX=1;exitY=0.5;exitDx=0;exitDy=0;entryX=0;entryY=0.5;entryDx=0;entryDy=0;fontSize=14;" edge="1" parent="1" source="0jPFI7pGjnbCgKfN27kb-61" target="0jPFI7pGjnbCgKfN27kb-64">
          <mxGeometry relative="1" as="geometry" />
        </mxCell>
        <mxCell id="0jPFI7pGjnbCgKfN27kb-61" value="next" style="rounded=0;whiteSpace=wrap;html=1;fontSize=14;" vertex="1" parent="1">
          <mxGeometry x="560" y="490" width="200" height="40" as="geometry" />
        </mxCell>
        <mxCell id="0jPFI7pGjnbCgKfN27kb-64" value="Hook" style="rounded=0;whiteSpace=wrap;html=1;verticalAlign=middle;fontSize=16;fontStyle=1" vertex="1" parent="1">
          <mxGeometry x="840" y="280" width="200" height="50" as="geometry" />
        </mxCell>
        <mxCell id="0jPFI7pGjnbCgKfN27kb-65" value="......" style="rounded=0;whiteSpace=wrap;html=1;fontSize=14;" vertex="1" parent="1">
          <mxGeometry x="840" y="330" width="200" height="40" as="geometry" />
        </mxCell>
      </root>
    </mxGraphModel>
  </diagram>
</mxfile>
